# xmcd
#
# Track frame offsets: 
#        150
#        8542
#        11780
#        22732
#        37297
#        50165
#        53282
#        66502
#        74422
#        77657
#        92045
#        97205
#        100010
#        109612
#        125137
#        133552
#        135255
#        142655
#        153905
#        156480
#        169835
#        176212
#
# Disc length: 2553 seconds
#
# Revision: 0
# Processed by: cddbd v1.4PL0 Copyright (c) Steve Scherf et al.
# Submitted via: ExactAudioCopy v0.90b3
#
DISCID=2809f716
DTITLE=Merle Travis - In Boston 1959
DYEAR=2003
DGENRE=Country
TTITLE0=Nine Pound Hammer
TTITLE1=Welcoming Remarks
TTITLE2=Goodbye My Bluebelle
TTITLE3=Dark as a Dungeon
TTITLE4=John Henry
TTITLE5=Reminiscences About "From Here to Eternity"
TTITLE6=Re-enlistment Blues
TTITLE7=I'll See You in My Dreams
TTITLE8=Rap "Sixteen Tons" Intro
TTITLE9=Sixteen Tons
TTITLE10=Saturday Night Shuffle
TTITLE11=Remarks About Kids' Songs
TTITLE12=Muskrat
TTITLE13=That's All
TTITLE14=Lost John
TTITLE15=Comic Rap
TTITLE16=Cannonball Rag
TTITLE17=Memphis Blues
TTITLE18=Remarks About Hollywood, Trains, Eating
TTITLE19=Hominy Grits
TTITLE20=Liza Jane
TTITLE21=I Am a Pilgrim
EXTD=
EXTT0=
EXTT1=
EXTT2=
EXTT3=
EXTT4=
EXTT5=
EXTT6=
EXTT7=
EXTT8=
EXTT9=
EXTT10=
EXTT11=
EXTT12=
EXTT13=
EXTT14=
EXTT15=
EXTT16=
EXTT17=
EXTT18=
EXTT19=
EXTT20=
EXTT21=
PLAYORDER=
